<svg width="12" height="12" viewBox="0 0 12 12" fill="none" xmlns="http://www.w3.org/2000/svg">
<g id="Frame">
<path id="Vector" d="M10.4 6.375H0.800049C0.600049 6.375 0.425049 6.2 0.425049 6C0.425049 5.8 0.600049 5.625 0.800049 5.625H10.4C10.6 5.625 10.775 5.8 10.775 6C10.775 6.2 10.6 6.375 10.4 6.375Z" fill="#09090B"/>
<path id="Vector_2" d="M7.62505 10.0498C7.52505 10.0498 7.42505 9.99982 7.35005 9.94982C7.20005 9.79982 7.20005 9.57482 7.35005 9.42482L10.775 5.99982L7.37505 2.59982C7.22505 2.44982 7.22505 2.22482 7.35005 2.07482C7.47505 1.92482 7.72505 1.92482 7.87505 2.04982C7.87505 2.04982 7.90005 2.04982 7.90005 2.07482L11.4 5.57482C11.65 5.82482 11.65 6.22482 11.4 6.44982L7.90005 9.94982C7.82505 10.0248 7.72505 10.0498 7.62505 10.0498Z" fill="#09090B"/>
</g>
</svg>
