<svg width="24" height="24" viewBox="0 0 24 24" fill="none" xmlns="http://www.w3.org/2000/svg">
<g id="Frame">
<g id="Group 2">
<path id="Vector" d="M16.0265 19.0666C15.8131 19.0666 15.6265 18.88 15.6265 18.6666V14C15.6265 12.7466 14.6131 11.7333 13.3598 11.7333H8.02648C7.81314 11.7333 7.62648 11.5466 7.62648 11.3333C7.62648 11.12 7.81314 10.9333 8.02648 10.9333H13.3598C15.0398 10.9333 16.4265 12.32 16.4265 14V18.6666C16.4265 18.88 16.2398 19.0666 16.0265 19.0666ZM8.02648 9.06663C6.87981 9.06663 5.97314 8.13329 5.97314 7.01329C5.97314 5.89329 6.90648 4.95996 8.02648 4.95996C9.14648 4.95996 10.0798 5.89329 10.0798 7.01329C10.0798 8.13329 9.17314 9.06663 8.02648 9.06663ZM8.02648 5.73329C7.33314 5.73329 6.77314 6.29329 6.77314 6.98663C6.77314 7.67996 7.33314 8.23996 8.02648 8.23996C8.71981 8.23996 9.27981 7.67996 9.27981 6.98663C9.27981 6.29329 8.74648 5.73329 8.02648 5.73329Z" fill="#888F9D"/>
<path id="Vector_2" d="M8.02646 18.7467C7.81313 18.7467 7.62646 18.56 7.62646 18.3467V8.69333C7.62646 8.48 7.81313 8.29333 8.02646 8.29333C8.2398 8.29333 8.42646 8.48 8.42646 8.69333V18.3467C8.42646 18.56 8.26646 18.7467 8.02646 18.7467Z" fill="#888F9D"/>
<path id="Vector_3" d="M8.02663 19.0666C7.91996 19.0666 7.81329 19.0399 7.73329 18.9599L6.07996 17.3066C5.91996 17.1466 5.91996 16.9066 6.07996 16.7466C6.23996 16.5866 6.47996 16.5866 6.63996 16.7466L8.02663 18.1333L9.41329 16.7466C9.57329 16.5866 9.81329 16.5866 9.97329 16.7466C10.1333 16.9066 10.1333 17.1466 9.97329 17.3066L8.31996 18.9599C8.23996 19.0399 8.13329 19.0666 8.02663 19.0666ZM16.0266 19.0666C15.92 19.0666 15.8133 19.0399 15.7333 18.9599L14.08 17.3066C13.92 17.1466 13.92 16.9066 14.08 16.7466C14.24 16.5866 14.48 16.5866 14.64 16.7466L16.0266 18.1333L17.4133 16.7466C17.5733 16.5866 17.8133 16.5866 17.9733 16.7466C18.1333 16.9066 18.1333 17.1466 17.9733 17.3066L16.32 18.9599C16.24 19.0399 16.1333 19.0666 16.0266 19.0666Z" fill="#888F9D"/>
</g>
</g>
</svg>
